<svg xmlns="http://www.w3.org/2000/svg" viewBox="0 0 792 391" width="792" height="391" role="img" aria-label="Top-down plan view of an InvisiClip deck section showing eight 5.5 inch wide boards crossing six aluminum rails. Rails sit on top of joists at 16 inches on center. A POM clip joins every pair of adjacent boards at every rail.">
<style>.diagram-label { font-family: "Satoshi", "Inter", sans-serif; font-weight: 600; font-size: 14px; fill: #0e1f3a; }.diagram-sub { font-family: "Satoshi", "Inter", sans-serif; font-weight: 500; font-size: 11px; fill: #6b7280; letter-spacing: 0.04em; }.diagram-eyebrow { font-family: "Satoshi", "Inter", sans-serif; font-weight: 700; font-size: 10px; fill: #d4a574; letter-spacing: 0.18em; text-transform: uppercase; }.diagram-stat { font-family: "Boska", "Times New Roman", serif; font-style: italic; font-weight: 500; font-size: 22px; fill: #0e1f3a; }.diagram-stat-sub { font-family: "Satoshi", "Inter", sans-serif; font-weight: 600; font-size: 10px; fill: #6b7280; letter-spacing: 0.1em; text-transform: uppercase; }</style>
<rect x="0" y="0" width="792" height="391" fill="#ffffff"/>
<rect x="105.00" y="66.00" width="6.00" height="283.88" fill="#9aa3ae" stroke="#6f7884" stroke-width="0.6"/>
<rect x="201.00" y="66.00" width="6.00" height="283.88" fill="#9aa3ae" stroke="#6f7884" stroke-width="0.6"/>
<rect x="297.00" y="66.00" width="6.00" height="283.88" fill="#9aa3ae" stroke="#6f7884" stroke-width="0.6"/>
<rect x="393.00" y="66.00" width="6.00" height="283.88" fill="#9aa3ae" stroke="#6f7884" stroke-width="0.6"/>
<rect x="489.00" y="66.00" width="6.00" height="283.88" fill="#9aa3ae" stroke="#6f7884" stroke-width="0.6"/>
<rect x="585.00" y="66.00" width="6.00" height="283.88" fill="#9aa3ae" stroke="#6f7884" stroke-width="0.6"/>
<rect x="84.00" y="72.00" width="576.00" height="33.00" fill="#e8e2d8" stroke="#b8ad9a" stroke-width="0.8"/>
<line x1="88" y1="83.55" x2="656" y2="83.55" stroke="#b8ad9a" stroke-width="0.3" opacity="0.35"/>
<line x1="88" y1="95.10" x2="656" y2="95.10" stroke="#b8ad9a" stroke-width="0.3" opacity="0.35"/>
<rect x="84.00" y="106.12" width="576.00" height="33.00" fill="#e8e2d8" stroke="#b8ad9a" stroke-width="0.8"/>
<line x1="88" y1="117.67" x2="656" y2="117.67" stroke="#b8ad9a" stroke-width="0.3" opacity="0.35"/>
<line x1="88" y1="129.22" x2="656" y2="129.22" stroke="#b8ad9a" stroke-width="0.3" opacity="0.35"/>
<rect x="84.00" y="140.25" width="576.00" height="33.00" fill="#e8e2d8" stroke="#b8ad9a" stroke-width="0.8"/>
<line x1="88" y1="151.80" x2="656" y2="151.80" stroke="#b8ad9a" stroke-width="0.3" opacity="0.35"/>
<line x1="88" y1="163.35" x2="656" y2="163.35" stroke="#b8ad9a" stroke-width="0.3" opacity="0.35"/>
<rect x="84.00" y="174.38" width="576.00" height="33.00" fill="#e8e2d8" stroke="#b8ad9a" stroke-width="0.8"/>
<line x1="88" y1="185.93" x2="656" y2="185.93" stroke="#b8ad9a" stroke-width="0.3" opacity="0.35"/>
<line x1="88" y1="197.47" x2="656" y2="197.47" stroke="#b8ad9a" stroke-width="0.3" opacity="0.35"/>
<rect x="84.00" y="208.50" width="576.00" height="33.00" fill="#e8e2d8" stroke="#b8ad9a" stroke-width="0.8"/>
<line x1="88" y1="220.05" x2="656" y2="220.05" stroke="#b8ad9a" stroke-width="0.3" opacity="0.35"/>
<line x1="88" y1="231.60" x2="656" y2="231.60" stroke="#b8ad9a" stroke-width="0.3" opacity="0.35"/>
<rect x="84.00" y="242.62" width="576.00" height="33.00" fill="#e8e2d8" stroke="#b8ad9a" stroke-width="0.8"/>
<line x1="88" y1="254.18" x2="656" y2="254.18" stroke="#b8ad9a" stroke-width="0.3" opacity="0.35"/>
<line x1="88" y1="265.73" x2="656" y2="265.73" stroke="#b8ad9a" stroke-width="0.3" opacity="0.35"/>
<rect x="84.00" y="276.75" width="576.00" height="33.00" fill="#e8e2d8" stroke="#b8ad9a" stroke-width="0.8"/>
<line x1="88" y1="288.30" x2="656" y2="288.30" stroke="#b8ad9a" stroke-width="0.3" opacity="0.35"/>
<line x1="88" y1="299.85" x2="656" y2="299.85" stroke="#b8ad9a" stroke-width="0.3" opacity="0.35"/>
<rect x="84.00" y="310.88" width="576.00" height="33.00" fill="#e8e2d8" stroke="#b8ad9a" stroke-width="0.8"/>
<line x1="88" y1="322.43" x2="656" y2="322.43" stroke="#b8ad9a" stroke-width="0.3" opacity="0.35"/>
<line x1="88" y1="333.98" x2="656" y2="333.98" stroke="#b8ad9a" stroke-width="0.3" opacity="0.35"/>
<rect x="84.00" y="105.00" width="576.00" height="1.12" fill="#1a2a45" opacity="0.0"/>
<rect x="84.00" y="139.12" width="576.00" height="1.12" fill="#1a2a45" opacity="0.0"/>
<rect x="84.00" y="173.25" width="576.00" height="1.12" fill="#1a2a45" opacity="0.0"/>
<rect x="84.00" y="207.38" width="576.00" height="1.12" fill="#1a2a45" opacity="0.0"/>
<rect x="84.00" y="241.50" width="576.00" height="1.12" fill="#1a2a45" opacity="0.0"/>
<rect x="84.00" y="275.62" width="576.00" height="1.12" fill="#1a2a45" opacity="0.0"/>
<rect x="84.00" y="309.75" width="576.00" height="1.12" fill="#1a2a45" opacity="0.0"/>
<rect x="103.20" y="69.60" width="9.60" height="5.40" fill="#d4a574" stroke="#0e1f3a" stroke-width="0.6" rx="1"/>
<rect x="103.20" y="101.96" width="9.60" height="7.20" fill="#0e1f3a" stroke="#000" stroke-width="0.4" rx="1.2"/>
<rect x="103.20" y="136.09" width="9.60" height="7.20" fill="#0e1f3a" stroke="#000" stroke-width="0.4" rx="1.2"/>
<rect x="103.20" y="170.21" width="9.60" height="7.20" fill="#0e1f3a" stroke="#000" stroke-width="0.4" rx="1.2"/>
<rect x="103.20" y="204.34" width="9.60" height="7.20" fill="#0e1f3a" stroke="#000" stroke-width="0.4" rx="1.2"/>
<rect x="103.20" y="238.46" width="9.60" height="7.20" fill="#0e1f3a" stroke="#000" stroke-width="0.4" rx="1.2"/>
<rect x="103.20" y="272.59" width="9.60" height="7.20" fill="#0e1f3a" stroke="#000" stroke-width="0.4" rx="1.2"/>
<rect x="103.20" y="306.71" width="9.60" height="7.20" fill="#0e1f3a" stroke="#000" stroke-width="0.4" rx="1.2"/>
<rect x="103.20" y="340.88" width="9.60" height="5.40" fill="#d4a574" stroke="#0e1f3a" stroke-width="0.6" rx="1"/>
<rect x="199.20" y="69.60" width="9.60" height="5.40" fill="#d4a574" stroke="#0e1f3a" stroke-width="0.6" rx="1"/>
<rect x="199.20" y="101.96" width="9.60" height="7.20" fill="#0e1f3a" stroke="#000" stroke-width="0.4" rx="1.2"/>
<rect x="199.20" y="136.09" width="9.60" height="7.20" fill="#0e1f3a" stroke="#000" stroke-width="0.4" rx="1.2"/>
<rect x="199.20" y="170.21" width="9.60" height="7.20" fill="#0e1f3a" stroke="#000" stroke-width="0.4" rx="1.2"/>
<rect x="199.20" y="204.34" width="9.60" height="7.20" fill="#0e1f3a" stroke="#000" stroke-width="0.4" rx="1.2"/>
<rect x="199.20" y="238.46" width="9.60" height="7.20" fill="#0e1f3a" stroke="#000" stroke-width="0.4" rx="1.2"/>
<rect x="199.20" y="272.59" width="9.60" height="7.20" fill="#0e1f3a" stroke="#000" stroke-width="0.4" rx="1.2"/>
<rect x="199.20" y="306.71" width="9.60" height="7.20" fill="#0e1f3a" stroke="#000" stroke-width="0.4" rx="1.2"/>
<rect x="199.20" y="340.88" width="9.60" height="5.40" fill="#d4a574" stroke="#0e1f3a" stroke-width="0.6" rx="1"/>
<rect x="295.20" y="69.60" width="9.60" height="5.40" fill="#d4a574" stroke="#0e1f3a" stroke-width="0.6" rx="1"/>
<rect x="295.20" y="101.96" width="9.60" height="7.20" fill="#0e1f3a" stroke="#000" stroke-width="0.4" rx="1.2"/>
<rect x="295.20" y="136.09" width="9.60" height="7.20" fill="#0e1f3a" stroke="#000" stroke-width="0.4" rx="1.2"/>
<rect x="295.20" y="170.21" width="9.60" height="7.20" fill="#0e1f3a" stroke="#000" stroke-width="0.4" rx="1.2"/>
<rect x="295.20" y="204.34" width="9.60" height="7.20" fill="#0e1f3a" stroke="#000" stroke-width="0.4" rx="1.2"/>
<rect x="295.20" y="238.46" width="9.60" height="7.20" fill="#0e1f3a" stroke="#000" stroke-width="0.4" rx="1.2"/>
<rect x="295.20" y="272.59" width="9.60" height="7.20" fill="#0e1f3a" stroke="#000" stroke-width="0.4" rx="1.2"/>
<rect x="295.20" y="306.71" width="9.60" height="7.20" fill="#0e1f3a" stroke="#000" stroke-width="0.4" rx="1.2"/>
<rect x="295.20" y="340.88" width="9.60" height="5.40" fill="#d4a574" stroke="#0e1f3a" stroke-width="0.6" rx="1"/>
<rect x="391.20" y="69.60" width="9.60" height="5.40" fill="#d4a574" stroke="#0e1f3a" stroke-width="0.6" rx="1"/>
<rect x="391.20" y="101.96" width="9.60" height="7.20" fill="#0e1f3a" stroke="#000" stroke-width="0.4" rx="1.2"/>
<rect x="391.20" y="136.09" width="9.60" height="7.20" fill="#0e1f3a" stroke="#000" stroke-width="0.4" rx="1.2"/>
<rect x="391.20" y="170.21" width="9.60" height="7.20" fill="#0e1f3a" stroke="#000" stroke-width="0.4" rx="1.2"/>
<rect x="391.20" y="204.34" width="9.60" height="7.20" fill="#0e1f3a" stroke="#000" stroke-width="0.4" rx="1.2"/>
<rect x="391.20" y="238.46" width="9.60" height="7.20" fill="#0e1f3a" stroke="#000" stroke-width="0.4" rx="1.2"/>
<rect x="391.20" y="272.59" width="9.60" height="7.20" fill="#0e1f3a" stroke="#000" stroke-width="0.4" rx="1.2"/>
<rect x="391.20" y="306.71" width="9.60" height="7.20" fill="#0e1f3a" stroke="#000" stroke-width="0.4" rx="1.2"/>
<rect x="391.20" y="340.88" width="9.60" height="5.40" fill="#d4a574" stroke="#0e1f3a" stroke-width="0.6" rx="1"/>
<rect x="487.20" y="69.60" width="9.60" height="5.40" fill="#d4a574" stroke="#0e1f3a" stroke-width="0.6" rx="1"/>
<rect x="487.20" y="101.96" width="9.60" height="7.20" fill="#0e1f3a" stroke="#000" stroke-width="0.4" rx="1.2"/>
<rect x="487.20" y="136.09" width="9.60" height="7.20" fill="#0e1f3a" stroke="#000" stroke-width="0.4" rx="1.2"/>
<rect x="487.20" y="170.21" width="9.60" height="7.20" fill="#0e1f3a" stroke="#000" stroke-width="0.4" rx="1.2"/>
<rect x="487.20" y="204.34" width="9.60" height="7.20" fill="#0e1f3a" stroke="#000" stroke-width="0.4" rx="1.2"/>
<rect x="487.20" y="238.46" width="9.60" height="7.20" fill="#0e1f3a" stroke="#000" stroke-width="0.4" rx="1.2"/>
<rect x="487.20" y="272.59" width="9.60" height="7.20" fill="#0e1f3a" stroke="#000" stroke-width="0.4" rx="1.2"/>
<rect x="487.20" y="306.71" width="9.60" height="7.20" fill="#0e1f3a" stroke="#000" stroke-width="0.4" rx="1.2"/>
<rect x="487.20" y="340.88" width="9.60" height="5.40" fill="#d4a574" stroke="#0e1f3a" stroke-width="0.6" rx="1"/>
<rect x="583.20" y="69.60" width="9.60" height="5.40" fill="#d4a574" stroke="#0e1f3a" stroke-width="0.6" rx="1"/>
<rect x="583.20" y="101.96" width="9.60" height="7.20" fill="#0e1f3a" stroke="#000" stroke-width="0.4" rx="1.2"/>
<rect x="583.20" y="136.09" width="9.60" height="7.20" fill="#0e1f3a" stroke="#000" stroke-width="0.4" rx="1.2"/>
<rect x="583.20" y="170.21" width="9.60" height="7.20" fill="#0e1f3a" stroke="#000" stroke-width="0.4" rx="1.2"/>
<rect x="583.20" y="204.34" width="9.60" height="7.20" fill="#0e1f3a" stroke="#000" stroke-width="0.4" rx="1.2"/>
<rect x="583.20" y="238.46" width="9.60" height="7.20" fill="#0e1f3a" stroke="#000" stroke-width="0.4" rx="1.2"/>
<rect x="583.20" y="272.59" width="9.60" height="7.20" fill="#0e1f3a" stroke="#000" stroke-width="0.4" rx="1.2"/>
<rect x="583.20" y="306.71" width="9.60" height="7.20" fill="#0e1f3a" stroke="#000" stroke-width="0.4" rx="1.2"/>
<rect x="583.20" y="340.88" width="9.60" height="5.40" fill="#d4a574" stroke="#0e1f3a" stroke-width="0.6" rx="1"/>
<line x1="108.00" y1="51.00" x2="588.00" y2="51.00" stroke="#6b7280" stroke-width="0.9"/>
<line x1="108.00" y1="47.00" x2="108.00" y2="55.00" stroke="#6b7280" stroke-width="0.9"/>
<line x1="204.00" y1="47.00" x2="204.00" y2="55.00" stroke="#6b7280" stroke-width="0.9"/>
<line x1="300.00" y1="47.00" x2="300.00" y2="55.00" stroke="#6b7280" stroke-width="0.9"/>
<line x1="396.00" y1="47.00" x2="396.00" y2="55.00" stroke="#6b7280" stroke-width="0.9"/>
<line x1="492.00" y1="47.00" x2="492.00" y2="55.00" stroke="#6b7280" stroke-width="0.9"/>
<line x1="588.00" y1="47.00" x2="588.00" y2="55.00" stroke="#6b7280" stroke-width="0.9"/>
<text x="156.00" y="43.00" text-anchor="middle" class="diagram-label">16&quot;</text>
<text x="252.00" y="43.00" text-anchor="middle" class="diagram-label">16&quot;</text>
<text x="348.00" y="43.00" text-anchor="middle" class="diagram-label">16&quot;</text>
<text x="444.00" y="43.00" text-anchor="middle" class="diagram-label">16&quot;</text>
<text x="540.00" y="43.00" text-anchor="middle" class="diagram-label">16&quot;</text>
<line x1="84.00" y1="69.00" x2="108.00" y2="69.00" stroke="#6b7280" stroke-width="0.9"/>
<line x1="84.00" y1="65.00" x2="84.00" y2="73.00" stroke="#6b7280" stroke-width="0.9"/>
<line x1="108.00" y1="65.00" x2="108.00" y2="73.00" stroke="#6b7280" stroke-width="0.9"/>
<text x="96.00" y="61.00" text-anchor="middle" class="diagram-label">4&quot; max</text>
<line x1="696.00" y1="72.00" x2="696.00" y2="105.00" stroke="#6b7280" stroke-width="0.9"/>
<line x1="692.00" y1="72.00" x2="700.00" y2="72.00" stroke="#6b7280" stroke-width="0.9"/>
<line x1="692.00" y1="105.00" x2="700.00" y2="105.00" stroke="#6b7280" stroke-width="0.9"/>
<text x="706.00" y="92.50" class="diagram-label">5.5&quot; board</text>
<line x1="696.00" y1="105.00" x2="696.00" y2="106.12" stroke="#6b7280" stroke-width="0.9"/>
<text x="706.00" y="109.56" class="diagram-label">3/16&quot; gap</text>
<text x="84.00" y="18.00" class="diagram-eyebrow">PLAN VIEW</text>
<text x="84.00" y="30.00" class="diagram-label">Rails on top of every joist (parallel). Boards perpendicular, snap onto the clips.</text>
<rect x="84.00" y="350.88" width="14" height="10" fill="#0e1f3a" stroke="#0e1f3a" stroke-width="0.6" rx="1"/>
<text x="104.00" y="358.88" class="diagram-sub">Full clip (1483)</text>
<rect x="246.40" y="350.88" width="14" height="10" fill="#d4a574" stroke="#0e1f3a" stroke-width="0.6" rx="1"/>
<text x="266.40" y="358.88" class="diagram-sub">Half clip (1485)</text>
<rect x="408.80" y="350.88" width="14" height="10" fill="#9aa3ae" stroke="#0e1f3a" stroke-width="0.6" rx="1"/>
<text x="428.80" y="358.88" class="diagram-sub">Aluminum rail on joist</text>
<rect x="609.60" y="350.88" width="14" height="10" fill="#e8e2d8" stroke="#0e1f3a" stroke-width="0.6" rx="1"/>
<text x="629.60" y="358.88" class="diagram-sub">Side-grooved deck board</text>
<line x1="30.00" y1="84.00" x2="30.00" y2="331.88" stroke="#0e1f3a" stroke-width="1.5"/>
<polyline points="26,90 30,84 34,90" fill="none" stroke="#0e1f3a" stroke-width="1.5"/>
<polyline points="26,325.875 30,331.875 34,325.875" fill="none" stroke="#0e1f3a" stroke-width="1.5"/>
<text x="22.00" y="207.94" transform="rotate(-90 22.00 207.94)" text-anchor="middle" class="diagram-sub">JOISTS / RAILS RUN THIS DIRECTION</text>
<line x1="96.00" y1="376.88" x2="648.00" y2="376.88" stroke="#0e1f3a" stroke-width="1.5"/>
<polyline points="102,372.875 96,376.875 102,380.875" fill="none" stroke="#0e1f3a" stroke-width="1.5"/>
<polyline points="642,372.875 648,376.875 642,380.875" fill="none" stroke="#0e1f3a" stroke-width="1.5"/>
<text x="372.00" y="370.88" text-anchor="middle" class="diagram-sub">DECK BOARDS RUN THIS DIRECTION</text>
</svg>